<svg width="525" height="899" viewBox="0 0 525 899" fill="none" xmlns="http://www.w3.org/2000/svg">
<rect x="221.305" y="709.518" width="445.89" height="86.3014" transform="rotate(-90.4247 221.305 709.518)" fill="url(#paint0_linear_279_82)"/>
<path d="M93.1 498.1C93.1 523.3 96.3667 548.267 102.9 573C109.433 597.267 119.7 619.2 133.7 638.8C147.7 658.4 165.667 674.267 187.6 686.4C209.533 698.067 235.667 703.9 266 703.9C296.333 703.9 322.467 698.067 344.4 686.4C366.333 674.267 384.3 658.4 398.3 638.8C412.3 619.2 422.567 597.267 429.1 573C435.633 548.267 438.9 523.3 438.9 498.1C438.9 472.9 435.633 448.167 429.1 423.9C422.567 399.167 412.3 377 398.3 357.4C384.3 337.8 366.333 322.167 344.4 310.5C322.467 298.367 296.333 292.3 266 292.3C235.667 292.3 209.533 298.367 187.6 310.5C165.667 322.167 147.7 337.8 133.7 357.4C119.7 377 109.433 399.167 102.9 423.9C96.3667 448.167 93.1 472.9 93.1 498.1ZM26.6 498.1C26.6 464.033 31.5 431.367 41.3 400.1C51.5667 368.367 66.7333 340.367 86.8 316.1C106.867 291.833 131.833 272.467 161.7 258C191.567 243.533 226.333 236.3 266 236.3C305.667 236.3 340.433 243.533 370.3 258C400.167 272.467 425.133 291.833 445.2 316.1C465.267 340.367 480.2 368.367 490 400.1C500.267 431.367 505.4 464.033 505.4 498.1C505.4 532.167 500.267 565.067 490 596.8C480.2 628.067 465.267 655.833 445.2 680.1C425.133 704.367 400.167 723.733 370.3 738.2C340.433 752.2 305.667 759.2 266 759.2C226.333 759.2 191.567 752.2 161.7 738.2C131.833 723.733 106.867 704.367 86.8 680.1C66.7333 655.833 51.5667 628.067 41.3 596.8C31.5 565.067 26.6 532.167 26.6 498.1Z" fill="url(#paint1_linear_279_82)"/>
<circle cx="262.724" cy="97.7243" r="97.0081" transform="rotate(-90.4247 262.724 97.7243)" fill="url(#paint2_linear_279_82)"/>
<defs>
<linearGradient id="paint0_linear_279_82" x1="444.25" y1="709.518" x2="444.25" y2="795.819" gradientUnits="userSpaceOnUse">
<stop stop-color="#FF25A8"/>
<stop offset="1" stop-color="#7826FE"/>
</linearGradient>
<linearGradient id="paint1_linear_279_82" x1="262.5" y1="72" x2="262.5" y2="899" gradientUnits="userSpaceOnUse">
<stop stop-color="#FF25A8"/>
<stop offset="1" stop-color="#7826FE"/>
</linearGradient>
<linearGradient id="paint2_linear_279_82" x1="262.724" y1="0.716133" x2="262.724" y2="194.732" gradientUnits="userSpaceOnUse">
<stop stop-color="#FF25A8"/>
<stop offset="1" stop-color="#7826FE"/>
</linearGradient>
</defs>
</svg>
